<svg width="1440" height="766" viewBox="0 0 1440 766" fill="none" xmlns="http://www.w3.org/2000/svg">
<path d="M687.031 484.328C1018.22 745.322 1503.77 716.059 1497.13 181.069C1497.08 177.017 1497.13 172.872 1497.31 168.824C1498.9 133.486 1506.49 -47.0707 1497.03 -82.6673C1486.53 -122.167 -68.9692 -417.172 -60.9692 65.3279C-52.9693 547.828 354.562 222.323 687.031 484.328Z" fill="#A5DA4A"/>
<path d="M128.367 99.8164H108.117V113.527H131.883V122H97.5703V70.8125H131.812V79.3555H108.117V91.5547H128.367V99.8164ZM152.52 114.512C154.395 114.512 155.918 113.996 157.09 112.965C158.262 111.934 158.871 110.562 158.918 108.852H168.445C168.422 111.43 167.719 113.797 166.336 115.953C164.953 118.086 163.055 119.75 160.641 120.945C158.25 122.117 155.602 122.703 152.695 122.703C147.258 122.703 142.969 120.98 139.828 117.535C136.688 114.066 135.117 109.285 135.117 103.191V102.523C135.117 96.6641 136.676 91.9883 139.793 88.4961C142.91 85.0039 147.188 83.2578 152.625 83.2578C157.383 83.2578 161.191 84.6172 164.051 87.3359C166.934 90.0312 168.398 93.6289 168.445 98.1289H158.918C158.871 96.1602 158.262 94.5664 157.09 93.3477C155.918 92.1055 154.371 91.4844 152.449 91.4844C150.082 91.4844 148.289 92.3516 147.07 94.0859C145.875 95.7969 145.277 98.5859 145.277 102.453V103.508C145.277 107.422 145.875 110.234 147.07 111.945C148.266 113.656 150.082 114.512 152.52 114.512ZM172.664 102.629C172.664 98.8555 173.391 95.4922 174.844 92.5391C176.297 89.5859 178.383 87.3008 181.102 85.6836C183.844 84.0664 187.02 83.2578 190.629 83.2578C195.762 83.2578 199.945 84.8281 203.18 87.9688C206.438 91.1094 208.254 95.375 208.629 100.766L208.699 103.367C208.699 109.203 207.07 113.891 203.812 117.43C200.555 120.945 196.184 122.703 190.699 122.703C185.215 122.703 180.832 120.945 177.551 117.43C174.293 113.914 172.664 109.133 172.664 103.086V102.629ZM182.824 103.367C182.824 106.977 183.504 109.742 184.863 111.664C186.223 113.562 188.168 114.512 190.699 114.512C193.16 114.512 195.082 113.574 196.465 111.699C197.848 109.801 198.539 106.777 198.539 102.629C198.539 99.0898 197.848 96.3477 196.465 94.4023C195.082 92.457 193.137 91.4844 190.629 91.4844C188.145 91.4844 186.223 92.457 184.863 94.4023C183.504 96.3242 182.824 99.3125 182.824 103.367ZM278.344 122C277.875 121.086 277.535 119.949 277.324 118.59C274.863 121.332 271.664 122.703 267.727 122.703C264 122.703 260.906 121.625 258.445 119.469C256.008 117.312 254.789 114.594 254.789 111.312C254.789 107.281 256.277 104.188 259.254 102.031C262.254 99.875 266.578 98.7852 272.227 98.7617H276.902V96.582C276.902 94.8242 276.445 93.418 275.531 92.3633C274.641 91.3086 273.223 90.7812 271.277 90.7812C269.566 90.7812 268.219 91.1914 267.234 92.0117C266.273 92.832 265.793 93.957 265.793 95.3867H255.633C255.633 93.1836 256.312 91.1445 257.672 89.2695C259.031 87.3945 260.953 85.9297 263.438 84.875C265.922 83.7969 268.711 83.2578 271.805 83.2578C276.492 83.2578 280.207 84.4414 282.949 86.8086C285.715 89.1523 287.098 92.457 287.098 96.7227V113.211C287.121 116.82 287.625 119.551 288.609 121.402V122H278.344ZM269.941 114.934C271.441 114.934 272.824 114.605 274.09 113.949C275.355 113.27 276.293 112.367 276.902 111.242V104.703H273.105C268.02 104.703 265.312 106.461 264.984 109.977L264.949 110.574C264.949 111.84 265.395 112.883 266.285 113.703C267.176 114.523 268.395 114.934 269.941 114.934ZM308.578 109.59L315.645 83.9609H326.262L313.43 122H303.727L290.895 83.9609H301.512L308.578 109.59ZM347.777 122.703C342.199 122.703 337.652 120.992 334.137 117.57C330.645 114.148 328.898 109.59 328.898 103.895V102.91C328.898 99.0898 329.637 95.6797 331.113 92.6797C332.59 89.6562 334.676 87.3359 337.371 85.7188C340.09 84.0781 343.184 83.2578 346.652 83.2578C351.855 83.2578 355.945 84.8984 358.922 88.1797C361.922 91.4609 363.422 96.1133 363.422 102.137V106.285H339.199C339.527 108.77 340.512 110.762 342.152 112.262C343.816 113.762 345.914 114.512 348.445 114.512C352.359 114.512 355.418 113.094 357.621 110.258L362.613 115.848C361.09 118.004 359.027 119.691 356.426 120.91C353.824 122.105 350.941 122.703 347.777 122.703ZM346.617 91.4844C344.602 91.4844 342.961 92.1641 341.695 93.5234C340.453 94.8828 339.656 96.8281 339.305 99.3594H353.438V98.5508C353.391 96.3008 352.781 94.5664 351.609 93.3477C350.438 92.1055 348.773 91.4844 346.617 91.4844Z" fill="black"/>
<path d="M238.828 108.535C238.828 106.613 238.289 105.09 237.211 103.965C236.156 102.816 234.352 101.762 231.797 100.801C229.242 99.8398 227.039 98.8906 225.188 97.9531C223.336 96.9922 221.742 95.9023 220.406 94.6836C219.094 93.4414 218.062 91.9883 217.312 90.3242C216.586 88.6602 216.223 86.6797 216.223 84.3828C216.223 80.4219 217.488 77.1758 220.02 74.6445C222.551 72.1133 225.914 70.6367 230.109 70.2148V62.6914H235.734V70.3203C239.883 70.9062 243.129 72.6406 245.473 75.5234C247.816 78.3828 248.988 82.0977 248.988 86.668H238.828C238.828 83.8555 238.242 81.7578 237.07 80.375C235.922 78.9688 234.375 78.2656 232.43 78.2656C230.508 78.2656 229.02 78.8164 227.965 79.918C226.91 80.9961 226.383 82.4961 226.383 84.418C226.383 86.1992 226.898 87.6289 227.93 88.707C228.961 89.7852 230.871 90.8867 233.66 92.0117C236.473 93.1367 238.781 94.2031 240.586 95.2109C242.391 96.1953 243.914 97.3203 245.156 98.5859C246.398 99.8281 247.348 101.258 248.004 102.875C248.66 104.469 248.988 106.332 248.988 108.465C248.988 112.449 247.746 115.684 245.262 118.168C242.777 120.652 239.355 122.117 234.996 122.562V129.559H229.406V122.598C224.602 122.082 220.875 120.383 218.227 117.5C215.602 114.594 214.289 110.738 214.289 105.934H224.449C224.449 108.723 225.105 110.867 226.418 112.367C227.754 113.844 229.664 114.582 232.148 114.582C234.211 114.582 235.84 114.043 237.035 112.965C238.23 111.863 238.828 110.387 238.828 108.535Z" fill="#FFE600"/>
<path d="M867.301 355V326.562H875.328C877.802 326.562 879.99 327.109 881.891 328.203C883.792 329.297 885.257 330.853 886.285 332.871C887.327 334.889 887.854 337.207 887.867 339.824V341.641C887.867 344.323 887.346 346.673 886.305 348.691C885.276 350.71 883.798 352.259 881.871 353.34C879.957 354.421 877.724 354.974 875.172 355H867.301ZM871.051 329.648V351.934H874.996C877.887 351.934 880.133 351.035 881.734 349.238C883.349 347.441 884.156 344.883 884.156 341.562V339.902C884.156 336.673 883.395 334.167 881.871 332.383C880.361 330.586 878.212 329.674 875.426 329.648H871.051ZM896.91 355H893.297V333.867H896.91V355ZM893.004 328.262C893.004 327.676 893.18 327.181 893.531 326.777C893.896 326.374 894.43 326.172 895.133 326.172C895.836 326.172 896.37 326.374 896.734 326.777C897.099 327.181 897.281 327.676 897.281 328.262C897.281 328.848 897.099 329.336 896.734 329.727C896.37 330.117 895.836 330.312 895.133 330.312C894.43 330.312 893.896 330.117 893.531 329.727C893.18 329.336 893.004 328.848 893.004 328.262ZM901.832 344.258C901.832 341.016 902.6 338.411 904.137 336.445C905.673 334.466 907.685 333.477 910.172 333.477C912.646 333.477 914.605 334.323 916.051 336.016V325H919.664V355H916.344L916.168 352.734C914.723 354.505 912.711 355.391 910.133 355.391C907.685 355.391 905.686 354.388 904.137 352.383C902.6 350.378 901.832 347.76 901.832 344.531V344.258ZM905.445 344.668C905.445 347.064 905.94 348.939 906.93 350.293C907.919 351.647 909.286 352.324 911.031 352.324C913.323 352.324 914.996 351.296 916.051 349.238V339.531C914.97 337.539 913.31 336.543 911.07 336.543C909.299 336.543 907.919 337.227 906.93 338.594C905.94 339.961 905.445 341.986 905.445 344.668ZM942.125 349.707L947.047 333.867H950.914L942.418 358.262C941.103 361.777 939.013 363.535 936.148 363.535L935.465 363.477L934.117 363.223V360.293L935.094 360.371C936.318 360.371 937.268 360.124 937.945 359.629C938.635 359.134 939.202 358.229 939.645 356.914L940.445 354.766L932.906 333.867H936.852L942.125 349.707ZM952.887 344.238C952.887 342.168 953.29 340.306 954.098 338.652C954.918 336.999 956.051 335.723 957.496 334.824C958.954 333.926 960.615 333.477 962.477 333.477C965.354 333.477 967.678 334.473 969.449 336.465C971.233 338.457 972.125 341.107 972.125 344.414V344.668C972.125 346.725 971.728 348.574 970.934 350.215C970.152 351.842 969.026 353.112 967.555 354.023C966.096 354.935 964.417 355.391 962.516 355.391C959.651 355.391 957.327 354.395 955.543 352.402C953.772 350.41 952.887 347.773 952.887 344.492V344.238ZM956.52 344.668C956.52 347.012 957.06 348.893 958.141 350.312C959.234 351.732 960.693 352.441 962.516 352.441C964.352 352.441 965.81 351.725 966.891 350.293C967.971 348.848 968.512 346.829 968.512 344.238C968.512 341.921 967.958 340.046 966.852 338.613C965.758 337.168 964.299 336.445 962.477 336.445C960.693 336.445 959.254 337.155 958.16 338.574C957.066 339.993 956.52 342.025 956.52 344.668ZM989.703 352.91C988.297 354.564 986.233 355.391 983.512 355.391C981.259 355.391 979.54 354.74 978.355 353.438C977.184 352.122 976.591 350.182 976.578 347.617V333.867H980.191V347.52C980.191 350.723 981.493 352.324 984.098 352.324C986.858 352.324 988.694 351.296 989.605 349.238V333.867H993.219V355H989.781L989.703 352.91ZM1014.55 345.215L1012.28 347.578V355H1008.67V325H1012.28V343.145L1014.21 340.82L1020.8 333.867H1025.19L1016.97 342.695L1026.15 355H1021.91L1014.55 345.215ZM1032.34 333.867L1032.46 336.523C1034.07 334.492 1036.18 333.477 1038.79 333.477C1043.25 333.477 1045.5 335.996 1045.54 341.035V355H1041.93V341.016C1041.92 339.492 1041.57 338.366 1040.88 337.637C1040.2 336.908 1039.14 336.543 1037.69 336.543C1036.52 336.543 1035.49 336.855 1034.61 337.48C1033.72 338.105 1033.03 338.926 1032.54 339.941V355H1028.92V333.867H1032.34ZM1050.04 344.238C1050.04 342.168 1050.44 340.306 1051.25 338.652C1052.07 336.999 1053.2 335.723 1054.64 334.824C1056.1 333.926 1057.76 333.477 1059.62 333.477C1062.5 333.477 1064.83 334.473 1066.6 336.465C1068.38 338.457 1069.27 341.107 1069.27 344.414V344.668C1069.27 346.725 1068.88 348.574 1068.08 350.215C1067.3 351.842 1066.17 353.112 1064.7 354.023C1063.24 354.935 1061.57 355.391 1059.66 355.391C1056.8 355.391 1054.48 354.395 1052.69 352.402C1050.92 350.41 1050.04 347.773 1050.04 344.492V344.238ZM1053.67 344.668C1053.67 347.012 1054.21 348.893 1055.29 350.312C1056.38 351.732 1057.84 352.441 1059.66 352.441C1061.5 352.441 1062.96 351.725 1064.04 350.293C1065.12 348.848 1065.66 346.829 1065.66 344.238C1065.66 341.921 1065.11 340.046 1064 338.613C1062.91 337.168 1061.45 336.445 1059.62 336.445C1057.84 336.445 1056.4 337.155 1055.31 338.574C1054.21 339.993 1053.67 342.025 1053.67 344.668ZM1092.52 350.02L1096.58 333.867H1100.19L1094.04 355H1091.11L1085.97 338.984L1080.97 355H1078.04L1071.91 333.867H1075.5L1079.66 349.688L1084.59 333.867H1087.5L1092.52 350.02ZM1117.42 336.426C1119.02 334.46 1121.1 333.477 1123.67 333.477C1128.13 333.477 1130.39 335.996 1130.43 341.035V355H1126.81V341.016C1126.8 339.492 1126.45 338.366 1125.76 337.637C1125.08 336.908 1124.02 336.543 1122.57 336.543C1121.4 336.543 1120.37 336.855 1119.49 337.48C1118.6 338.105 1117.91 338.926 1117.42 339.941V355H1113.8V325H1117.42V336.426ZM1134.88 344.238C1134.88 342.168 1135.28 340.306 1136.09 338.652C1136.91 336.999 1138.04 335.723 1139.49 334.824C1140.95 333.926 1142.61 333.477 1144.47 333.477C1147.35 333.477 1149.67 334.473 1151.44 336.465C1153.23 338.457 1154.12 341.107 1154.12 344.414V344.668C1154.12 346.725 1153.72 348.574 1152.93 350.215C1152.14 351.842 1151.02 353.112 1149.55 354.023C1148.09 354.935 1146.41 355.391 1144.51 355.391C1141.64 355.391 1139.32 354.395 1137.54 352.402C1135.76 350.41 1134.88 347.773 1134.88 344.492V344.238ZM1138.51 344.668C1138.51 347.012 1139.05 348.893 1140.13 350.312C1141.23 351.732 1142.68 352.441 1144.51 352.441C1146.34 352.441 1147.8 351.725 1148.88 350.293C1149.96 348.848 1150.5 346.829 1150.5 344.238C1150.5 341.921 1149.95 340.046 1148.84 338.613C1147.75 337.168 1146.29 336.445 1144.47 336.445C1142.68 336.445 1141.25 337.155 1140.15 338.574C1139.06 339.993 1138.51 342.025 1138.51 344.668ZM1177.36 350.02L1181.42 333.867H1185.04L1178.88 355H1175.95L1170.82 338.984L1165.82 355H1162.89L1156.75 333.867H1160.35L1164.51 349.688L1169.43 333.867H1172.34L1177.36 350.02ZM1202.05 333.867L1202.14 336.211C1203.69 334.388 1205.78 333.477 1208.41 333.477C1211.37 333.477 1213.38 334.609 1214.45 336.875C1215.15 335.859 1216.06 335.039 1217.18 334.414C1218.32 333.789 1219.65 333.477 1221.19 333.477C1225.82 333.477 1228.18 335.931 1228.26 340.84V355H1224.64V341.055C1224.64 339.544 1224.3 338.418 1223.61 337.676C1222.92 336.921 1221.76 336.543 1220.13 336.543C1218.79 336.543 1217.68 336.947 1216.79 337.754C1215.91 338.548 1215.39 339.622 1215.25 340.977V355H1211.62V341.152C1211.62 338.079 1210.11 336.543 1207.11 336.543C1204.74 336.543 1203.11 337.552 1202.24 339.57V355H1198.63V333.867H1202.05ZM1246.77 352.91C1245.37 354.564 1243.3 355.391 1240.58 355.391C1238.33 355.391 1236.61 354.74 1235.43 353.438C1234.25 352.122 1233.66 350.182 1233.65 347.617V333.867H1237.26V347.52C1237.26 350.723 1238.56 352.324 1241.17 352.324C1243.93 352.324 1245.76 351.296 1246.68 349.238V333.867H1250.29V355H1246.85L1246.77 352.91ZM1264.27 352.441C1265.56 352.441 1266.69 352.051 1267.65 351.27C1268.62 350.488 1269.15 349.512 1269.25 348.34H1272.67C1272.61 349.551 1272.19 350.703 1271.42 351.797C1270.65 352.891 1269.62 353.763 1268.34 354.414C1267.06 355.065 1265.71 355.391 1264.27 355.391C1261.4 355.391 1259.1 354.434 1257.4 352.52C1255.71 350.592 1254.86 347.962 1254.86 344.629V344.023C1254.86 341.966 1255.24 340.137 1255.99 338.535C1256.75 336.934 1257.83 335.69 1259.23 334.805C1260.65 333.919 1262.33 333.477 1264.25 333.477C1266.62 333.477 1268.59 334.186 1270.15 335.605C1271.73 337.025 1272.57 338.867 1272.67 341.133H1269.25C1269.15 339.766 1268.63 338.646 1267.69 337.773C1266.77 336.888 1265.62 336.445 1264.25 336.445C1262.42 336.445 1260.99 337.109 1259.98 338.438C1258.97 339.753 1258.47 341.66 1258.47 344.16V344.844C1258.47 347.279 1258.97 349.154 1259.98 350.469C1260.98 351.784 1262.41 352.441 1264.27 352.441ZM1280.35 336.426C1281.95 334.46 1284.03 333.477 1286.6 333.477C1291.06 333.477 1293.32 335.996 1293.36 341.035V355H1289.74V341.016C1289.73 339.492 1289.38 338.366 1288.69 337.637C1288.01 336.908 1286.95 336.543 1285.5 336.543C1284.33 336.543 1283.3 336.855 1282.42 337.48C1281.53 338.105 1280.84 338.926 1280.35 339.941V355H1276.73V325H1280.35V336.426ZM873.648 396.707L878.57 380.867H882.438L873.941 405.262C872.626 408.777 870.536 410.535 867.672 410.535L866.988 410.477L865.641 410.223V407.293L866.617 407.371C867.841 407.371 868.792 407.124 869.469 406.629C870.159 406.134 870.725 405.229 871.168 403.914L871.969 401.766L864.43 380.867H868.375L873.648 396.707ZM884.41 391.238C884.41 389.168 884.814 387.306 885.621 385.652C886.441 383.999 887.574 382.723 889.02 381.824C890.478 380.926 892.138 380.477 894 380.477C896.878 380.477 899.202 381.473 900.973 383.465C902.757 385.457 903.648 388.107 903.648 391.414V391.668C903.648 393.725 903.251 395.574 902.457 397.215C901.676 398.842 900.549 400.112 899.078 401.023C897.62 401.935 895.94 402.391 894.039 402.391C891.174 402.391 888.85 401.395 887.066 399.402C885.296 397.41 884.41 394.773 884.41 391.492V391.238ZM888.043 391.668C888.043 394.012 888.583 395.893 889.664 397.312C890.758 398.732 892.216 399.441 894.039 399.441C895.875 399.441 897.333 398.725 898.414 397.293C899.495 395.848 900.035 393.829 900.035 391.238C900.035 388.921 899.482 387.046 898.375 385.613C897.281 384.168 895.823 383.445 894 383.445C892.216 383.445 890.777 384.155 889.684 385.574C888.59 386.993 888.043 389.025 888.043 391.668ZM921.227 399.91C919.82 401.564 917.757 402.391 915.035 402.391C912.783 402.391 911.064 401.74 909.879 400.438C908.707 399.122 908.115 397.182 908.102 394.617V380.867H911.715V394.52C911.715 397.723 913.017 399.324 915.621 399.324C918.382 399.324 920.217 398.296 921.129 396.238V380.867H924.742V402H921.305L921.227 399.91ZM948.648 399.441C949.938 399.441 951.064 399.051 952.027 398.27C952.991 397.488 953.525 396.512 953.629 395.34H957.047C956.982 396.551 956.565 397.703 955.797 398.797C955.029 399.891 954 400.763 952.711 401.414C951.435 402.065 950.081 402.391 948.648 402.391C945.771 402.391 943.479 401.434 941.773 399.52C940.081 397.592 939.234 394.962 939.234 391.629V391.023C939.234 388.966 939.612 387.137 940.367 385.535C941.122 383.934 942.203 382.69 943.609 381.805C945.029 380.919 946.702 380.477 948.629 380.477C950.999 380.477 952.965 381.186 954.527 382.605C956.103 384.025 956.943 385.867 957.047 388.133H953.629C953.525 386.766 953.004 385.646 952.066 384.773C951.142 383.888 949.996 383.445 948.629 383.445C946.793 383.445 945.367 384.109 944.352 385.438C943.349 386.753 942.848 388.66 942.848 391.16V391.844C942.848 394.279 943.349 396.154 944.352 397.469C945.354 398.784 946.786 399.441 948.648 399.441ZM960.152 391.238C960.152 389.168 960.556 387.306 961.363 385.652C962.184 383.999 963.316 382.723 964.762 381.824C966.22 380.926 967.88 380.477 969.742 380.477C972.62 380.477 974.944 381.473 976.715 383.465C978.499 385.457 979.391 388.107 979.391 391.414V391.668C979.391 393.725 978.993 395.574 978.199 397.215C977.418 398.842 976.292 400.112 974.82 401.023C973.362 401.935 971.682 402.391 969.781 402.391C966.917 402.391 964.592 401.395 962.809 399.402C961.038 397.41 960.152 394.773 960.152 391.492V391.238ZM963.785 391.668C963.785 394.012 964.326 395.893 965.406 397.312C966.5 398.732 967.958 399.441 969.781 399.441C971.617 399.441 973.076 398.725 974.156 397.293C975.237 395.848 975.777 393.829 975.777 391.238C975.777 388.921 975.224 387.046 974.117 385.613C973.023 384.168 971.565 383.445 969.742 383.445C967.958 383.445 966.52 384.155 965.426 385.574C964.332 386.993 963.785 389.025 963.785 391.668ZM996.969 399.91C995.562 401.564 993.499 402.391 990.777 402.391C988.525 402.391 986.806 401.74 985.621 400.438C984.449 399.122 983.857 397.182 983.844 394.617V380.867H987.457V394.52C987.457 397.723 988.759 399.324 991.363 399.324C994.124 399.324 995.96 398.296 996.871 396.238V380.867H1000.48V402H997.047L996.969 399.91ZM1009.92 402H1006.3V372H1009.92V402ZM1014.84 391.258C1014.84 388.016 1015.61 385.411 1017.14 383.445C1018.68 381.466 1020.69 380.477 1023.18 380.477C1025.65 380.477 1027.61 381.323 1029.06 383.016V372H1032.67V402H1029.35L1029.18 399.734C1027.73 401.505 1025.72 402.391 1023.14 402.391C1020.69 402.391 1018.69 401.388 1017.14 399.383C1015.61 397.378 1014.84 394.76 1014.84 391.531V391.258ZM1018.45 391.668C1018.45 394.064 1018.95 395.939 1019.94 397.293C1020.93 398.647 1022.29 399.324 1024.04 399.324C1026.33 399.324 1028 398.296 1029.06 396.238V386.531C1027.98 384.539 1026.32 383.543 1024.08 383.543C1022.31 383.543 1020.93 384.227 1019.94 385.594C1018.95 386.961 1018.45 388.986 1018.45 391.668ZM1038.55 381.57L1036.5 380.164C1037.71 378.471 1038.34 376.688 1038.38 374.812V372H1041.95V374.539C1041.94 375.841 1041.61 377.143 1040.97 378.445C1040.35 379.734 1039.54 380.776 1038.55 381.57ZM1053.28 397.098L1058.51 380.867H1062.2L1054.62 402H1051.87L1044.21 380.867H1047.91L1053.28 397.098ZM1074.18 402.391C1071.31 402.391 1068.98 401.453 1067.18 399.578C1065.39 397.69 1064.49 395.171 1064.49 392.02V391.355C1064.49 389.259 1064.89 387.391 1065.68 385.75C1066.49 384.096 1067.61 382.807 1069.04 381.883C1070.48 380.945 1072.05 380.477 1073.73 380.477C1076.47 380.477 1078.61 381.382 1080.13 383.191C1081.66 385.001 1082.42 387.592 1082.42 390.965V392.469H1068.1C1068.15 394.552 1068.76 396.238 1069.92 397.527C1071.09 398.803 1072.57 399.441 1074.37 399.441C1075.65 399.441 1076.73 399.181 1077.61 398.66C1078.5 398.139 1079.27 397.449 1079.94 396.59L1082.14 398.309C1080.37 401.03 1077.72 402.391 1074.18 402.391ZM1073.73 383.445C1072.27 383.445 1071.04 383.979 1070.05 385.047C1069.07 386.102 1068.45 387.586 1068.22 389.5H1078.8V389.227C1078.7 387.391 1078.21 385.971 1077.32 384.969C1076.43 383.953 1075.24 383.445 1073.73 383.445ZM1108.84 396.395C1108.84 395.418 1108.47 394.663 1107.73 394.129C1107 393.582 1105.72 393.113 1103.88 392.723C1102.06 392.332 1100.61 391.863 1099.53 391.316C1098.46 390.77 1097.67 390.118 1097.14 389.363C1096.64 388.608 1096.38 387.71 1096.38 386.668C1096.38 384.936 1097.11 383.471 1098.57 382.273C1100.04 381.076 1101.92 380.477 1104.2 380.477C1106.59 380.477 1108.53 381.095 1110.02 382.332C1111.51 383.569 1112.26 385.151 1112.26 387.078H1108.63C1108.63 386.089 1108.21 385.236 1107.36 384.52C1106.53 383.803 1105.47 383.445 1104.2 383.445C1102.88 383.445 1101.85 383.732 1101.11 384.305C1100.37 384.878 1100 385.626 1100 386.551C1100 387.423 1100.34 388.081 1101.03 388.523C1101.72 388.966 1102.96 389.389 1104.76 389.793C1106.57 390.197 1108.04 390.678 1109.16 391.238C1110.28 391.798 1111.1 392.475 1111.64 393.27C1112.18 394.051 1112.46 395.008 1112.46 396.141C1112.46 398.029 1111.7 399.546 1110.19 400.691C1108.68 401.824 1106.72 402.391 1104.31 402.391C1102.62 402.391 1101.12 402.091 1099.82 401.492C1098.52 400.893 1097.5 400.06 1096.75 398.992C1096.02 397.911 1095.66 396.746 1095.66 395.496H1099.27C1099.34 396.707 1099.82 397.671 1100.72 398.387C1101.63 399.09 1102.83 399.441 1104.31 399.441C1105.68 399.441 1106.77 399.168 1107.59 398.621C1108.43 398.061 1108.84 397.319 1108.84 396.395ZM1130.21 402C1130 401.583 1129.83 400.841 1129.7 399.773C1128.02 401.518 1126.02 402.391 1123.69 402.391C1121.6 402.391 1119.89 401.805 1118.55 400.633C1117.22 399.448 1116.56 397.951 1116.56 396.141C1116.56 393.94 1117.39 392.234 1119.06 391.023C1120.74 389.799 1123.1 389.188 1126.13 389.188H1129.64V387.527C1129.64 386.264 1129.27 385.262 1128.51 384.52C1127.76 383.764 1126.64 383.387 1125.17 383.387C1123.88 383.387 1122.8 383.712 1121.93 384.363C1121.06 385.014 1120.62 385.802 1120.62 386.727H1116.99C1116.99 385.672 1117.36 384.656 1118.1 383.68C1118.86 382.69 1119.87 381.909 1121.15 381.336C1122.44 380.763 1123.85 380.477 1125.39 380.477C1127.82 380.477 1129.73 381.089 1131.11 382.312C1132.49 383.523 1133.21 385.197 1133.26 387.332V397.059C1133.26 398.999 1133.51 400.542 1134 401.688V402H1130.21ZM1124.21 399.246C1125.35 399.246 1126.42 398.953 1127.44 398.367C1128.45 397.781 1129.19 397.02 1129.64 396.082V391.746H1126.81C1122.39 391.746 1120.17 393.042 1120.17 395.633C1120.17 396.766 1120.55 397.651 1121.3 398.289C1122.06 398.927 1123.03 399.246 1124.21 399.246ZM1145.58 397.098L1150.82 380.867H1154.51L1146.93 402H1144.18L1136.52 380.867H1140.21L1145.58 397.098ZM1166.48 402.391C1163.62 402.391 1161.29 401.453 1159.49 399.578C1157.69 397.69 1156.79 395.171 1156.79 392.02V391.355C1156.79 389.259 1157.19 387.391 1157.98 385.75C1158.79 384.096 1159.91 382.807 1161.34 381.883C1162.79 380.945 1164.35 380.477 1166.03 380.477C1168.78 380.477 1170.91 381.382 1172.44 383.191C1173.96 385.001 1174.72 387.592 1174.72 390.965V392.469H1160.41C1160.46 394.552 1161.06 396.238 1162.22 397.527C1163.39 398.803 1164.88 399.441 1166.68 399.441C1167.95 399.441 1169.03 399.181 1169.92 398.66C1170.8 398.139 1171.58 397.449 1172.24 396.59L1174.45 398.309C1172.68 401.03 1170.02 402.391 1166.48 402.391ZM1166.03 383.445C1164.57 383.445 1163.35 383.979 1162.36 385.047C1161.37 386.102 1160.76 387.586 1160.52 389.5H1171.11V389.227C1171.01 387.391 1170.51 385.971 1169.62 384.969C1168.74 383.953 1167.54 383.445 1166.03 383.445ZM1192.77 402H1189.16V380.867H1192.77V402ZM1188.86 375.262C1188.86 374.676 1189.04 374.181 1189.39 373.777C1189.76 373.374 1190.29 373.172 1190.99 373.172C1191.7 373.172 1192.23 373.374 1192.59 373.777C1192.96 374.181 1193.14 374.676 1193.14 375.262C1193.14 375.848 1192.96 376.336 1192.59 376.727C1192.23 377.117 1191.7 377.312 1190.99 377.312C1190.29 377.312 1189.76 377.117 1189.39 376.727C1189.04 376.336 1188.86 375.848 1188.86 375.262ZM1201.99 380.867L1202.11 383.523C1203.72 381.492 1205.83 380.477 1208.43 380.477C1212.9 380.477 1215.15 382.996 1215.19 388.035V402H1211.58V388.016C1211.57 386.492 1211.21 385.366 1210.52 384.637C1209.85 383.908 1208.79 383.543 1207.34 383.543C1206.17 383.543 1205.14 383.855 1204.25 384.48C1203.37 385.105 1202.68 385.926 1202.18 386.941V402H1198.57V380.867H1201.99ZM1237.48 396.707L1242.4 380.867H1246.27L1237.77 405.262C1236.45 408.777 1234.36 410.535 1231.5 410.535L1230.82 410.477L1229.47 410.223V407.293L1230.45 407.371C1231.67 407.371 1232.62 407.124 1233.3 406.629C1233.99 406.134 1234.55 405.229 1235 403.914L1235.8 401.766L1228.26 380.867H1232.2L1237.48 396.707ZM1248.24 391.238C1248.24 389.168 1248.64 387.306 1249.45 385.652C1250.27 383.999 1251.4 382.723 1252.85 381.824C1254.31 380.926 1255.97 380.477 1257.83 380.477C1260.71 380.477 1263.03 381.473 1264.8 383.465C1266.58 385.457 1267.48 388.107 1267.48 391.414V391.668C1267.48 393.725 1267.08 395.574 1266.29 397.215C1265.5 398.842 1264.38 400.112 1262.91 401.023C1261.45 401.935 1259.77 402.391 1257.87 402.391C1255 402.391 1252.68 401.395 1250.89 399.402C1249.12 397.41 1248.24 394.773 1248.24 391.492V391.238ZM1251.87 391.668C1251.87 394.012 1252.41 395.893 1253.49 397.312C1254.59 398.732 1256.04 399.441 1257.87 399.441C1259.7 399.441 1261.16 398.725 1262.24 397.293C1263.32 395.848 1263.86 393.829 1263.86 391.238C1263.86 388.921 1263.31 387.046 1262.2 385.613C1261.11 384.168 1259.65 383.445 1257.83 383.445C1256.04 383.445 1254.61 384.155 1253.51 385.574C1252.42 386.993 1251.87 389.025 1251.87 391.668ZM1285.05 399.91C1283.65 401.564 1281.58 402.391 1278.86 402.391C1276.61 402.391 1274.89 401.74 1273.71 400.438C1272.54 399.122 1271.94 397.182 1271.93 394.617V380.867H1275.54V394.52C1275.54 397.723 1276.85 399.324 1279.45 399.324C1282.21 399.324 1284.05 398.296 1284.96 396.238V380.867H1288.57V402H1285.13L1285.05 399.91ZM1304.29 384.109C1303.75 384.018 1303.15 383.973 1302.52 383.973C1300.15 383.973 1298.54 384.982 1297.69 387V402H1294.08V380.867H1297.59L1297.65 383.309C1298.84 381.421 1300.52 380.477 1302.69 380.477C1303.39 380.477 1303.93 380.568 1304.29 380.75V384.109ZM865.855 438.258C865.855 435.016 866.624 432.411 868.16 430.445C869.697 428.466 871.708 427.477 874.195 427.477C876.669 427.477 878.629 428.323 880.074 430.016V419H883.688V449H880.367L880.191 446.734C878.746 448.505 876.734 449.391 874.156 449.391C871.708 449.391 869.71 448.388 868.16 446.383C866.624 444.378 865.855 441.76 865.855 438.531V438.258ZM869.469 438.668C869.469 441.064 869.964 442.939 870.953 444.293C871.943 445.647 873.31 446.324 875.055 446.324C877.346 446.324 879.02 445.296 880.074 443.238V433.531C878.993 431.539 877.333 430.543 875.094 430.543C873.323 430.543 871.943 431.227 870.953 432.594C869.964 433.961 869.469 435.986 869.469 438.668ZM902.359 449C902.151 448.583 901.982 447.841 901.852 446.773C900.172 448.518 898.167 449.391 895.836 449.391C893.753 449.391 892.04 448.805 890.699 447.633C889.371 446.448 888.707 444.951 888.707 443.141C888.707 440.94 889.54 439.234 891.207 438.023C892.887 436.799 895.243 436.188 898.277 436.188H901.793V434.527C901.793 433.264 901.415 432.262 900.66 431.52C899.905 430.764 898.792 430.387 897.32 430.387C896.031 430.387 894.951 430.712 894.078 431.363C893.206 432.014 892.77 432.802 892.77 433.727H889.137C889.137 432.672 889.508 431.656 890.25 430.68C891.005 429.69 892.021 428.909 893.297 428.336C894.586 427.763 895.999 427.477 897.535 427.477C899.97 427.477 901.878 428.089 903.258 429.312C904.638 430.523 905.354 432.197 905.406 434.332V444.059C905.406 445.999 905.654 447.542 906.148 448.688V449H902.359ZM896.363 446.246C897.496 446.246 898.57 445.953 899.586 445.367C900.602 444.781 901.337 444.02 901.793 443.082V438.746H898.961C894.534 438.746 892.32 440.042 892.32 442.633C892.32 443.766 892.698 444.651 893.453 445.289C894.208 445.927 895.178 446.246 896.363 446.246ZM914.996 449H911.383V427.867H914.996V449ZM911.09 422.262C911.09 421.676 911.266 421.181 911.617 420.777C911.982 420.374 912.516 420.172 913.219 420.172C913.922 420.172 914.456 420.374 914.82 420.777C915.185 421.181 915.367 421.676 915.367 422.262C915.367 422.848 915.185 423.336 914.82 423.727C914.456 424.117 913.922 424.312 913.219 424.312C912.516 424.312 911.982 424.117 911.617 423.727C911.266 423.336 911.09 422.848 911.09 422.262ZM924.723 449H921.109V419H924.723V449ZM937.438 443.707L942.359 427.867H946.227L937.73 452.262C936.415 455.777 934.326 457.535 931.461 457.535L930.777 457.477L929.43 457.223V454.293L930.406 454.371C931.63 454.371 932.581 454.124 933.258 453.629C933.948 453.134 934.514 452.229 934.957 450.914L935.758 448.766L928.219 427.867H932.164L937.438 443.707ZM963.316 449H959.703V419H963.316V449ZM973.043 449H969.43V427.867H973.043V449ZM969.137 422.262C969.137 421.676 969.312 421.181 969.664 420.777C970.029 420.374 970.562 420.172 971.266 420.172C971.969 420.172 972.503 420.374 972.867 420.777C973.232 421.181 973.414 421.676 973.414 422.262C973.414 422.848 973.232 423.336 972.867 423.727C972.503 424.117 971.969 424.312 971.266 424.312C970.562 424.312 970.029 424.117 969.664 423.727C969.312 423.336 969.137 422.848 969.137 422.262ZM980.621 449V430.66H977.281V427.867H980.621V425.699C980.621 423.434 981.227 421.682 982.438 420.445C983.648 419.208 985.361 418.59 987.574 418.59C988.408 418.59 989.234 418.701 990.055 418.922L989.859 421.852C989.247 421.734 988.596 421.676 987.906 421.676C986.734 421.676 985.829 422.021 985.191 422.711C984.553 423.388 984.234 424.365 984.234 425.641V427.867H988.746V430.66H984.234V449H980.621ZM1001.05 449.391C998.186 449.391 995.855 448.453 994.059 446.578C992.262 444.69 991.363 442.171 991.363 439.02V438.355C991.363 436.259 991.76 434.391 992.555 432.75C993.362 431.096 994.482 429.807 995.914 428.883C997.359 427.945 998.922 427.477 1000.6 427.477C1003.35 427.477 1005.48 428.382 1007.01 430.191C1008.53 432.001 1009.29 434.592 1009.29 437.965V439.469H994.977C995.029 441.552 995.634 443.238 996.793 444.527C997.965 445.803 999.449 446.441 1001.25 446.441C1002.52 446.441 1003.6 446.181 1004.49 445.66C1005.37 445.139 1006.15 444.449 1006.81 443.59L1009.02 445.309C1007.25 448.03 1004.59 449.391 1001.05 449.391ZM1000.6 430.445C999.143 430.445 997.919 430.979 996.93 432.047C995.94 433.102 995.328 434.586 995.094 436.5H1005.68V436.227C1005.58 434.391 1005.08 432.971 1004.2 431.969C1003.31 430.953 1002.11 430.445 1000.6 430.445ZM1017.73 440.992C1017.76 439.443 1017.93 438.219 1018.26 437.32C1018.58 436.422 1019.25 435.426 1020.25 434.332L1022.81 431.695C1023.9 430.458 1024.45 429.13 1024.45 427.711C1024.45 426.344 1024.09 425.276 1023.38 424.508C1022.66 423.727 1021.62 423.336 1020.25 423.336C1018.92 423.336 1017.85 423.688 1017.05 424.391C1016.24 425.094 1015.84 426.038 1015.84 427.223H1012.22C1012.25 425.113 1013 423.414 1014.47 422.125C1015.95 420.823 1017.88 420.172 1020.25 420.172C1022.71 420.172 1024.62 420.836 1025.99 422.164C1027.37 423.479 1028.06 425.289 1028.06 427.594C1028.06 429.872 1027.01 432.118 1024.9 434.332L1022.77 436.441C1021.82 437.496 1021.34 439.013 1021.34 440.992H1017.73ZM1017.57 447.184C1017.57 446.598 1017.75 446.109 1018.1 445.719C1018.47 445.315 1019 445.113 1019.7 445.113C1020.41 445.113 1020.94 445.315 1021.3 445.719C1021.67 446.109 1021.85 446.598 1021.85 447.184C1021.85 447.77 1021.67 448.258 1021.3 448.648C1020.94 449.026 1020.41 449.215 1019.7 449.215C1019 449.215 1018.47 449.026 1018.1 448.648C1017.75 448.258 1017.57 447.77 1017.57 447.184ZM1046.66 445.934H1060.13V449H1042.89V420.562H1046.66V445.934ZM1062.89 438.238C1062.89 436.168 1063.29 434.306 1064.1 432.652C1064.92 430.999 1066.05 429.723 1067.5 428.824C1068.95 427.926 1070.61 427.477 1072.48 427.477C1075.35 427.477 1077.68 428.473 1079.45 430.465C1081.23 432.457 1082.12 435.107 1082.12 438.414V438.668C1082.12 440.725 1081.73 442.574 1080.93 444.215C1080.15 445.842 1079.03 447.112 1077.55 448.023C1076.1 448.935 1074.42 449.391 1072.52 449.391C1069.65 449.391 1067.33 448.395 1065.54 446.402C1063.77 444.41 1062.89 441.773 1062.89 438.492V438.238ZM1066.52 438.668C1066.52 441.012 1067.06 442.893 1068.14 444.312C1069.23 445.732 1070.69 446.441 1072.52 446.441C1074.35 446.441 1075.81 445.725 1076.89 444.293C1077.97 442.848 1078.51 440.829 1078.51 438.238C1078.51 435.921 1077.96 434.046 1076.85 432.613C1075.76 431.168 1074.3 430.445 1072.48 430.445C1070.69 430.445 1069.25 431.155 1068.16 432.574C1067.07 433.993 1066.52 436.025 1066.52 438.668ZM1085.8 438.258C1085.8 434.964 1086.56 432.346 1088.08 430.406C1089.61 428.453 1091.62 427.477 1094.14 427.477C1096.71 427.477 1098.73 428.388 1100.17 430.211L1100.35 427.867H1103.65V448.492C1103.65 451.227 1102.83 453.382 1101.21 454.957C1099.59 456.533 1097.42 457.32 1094.68 457.32C1093.16 457.32 1091.67 456.995 1090.21 456.344C1088.75 455.693 1087.64 454.801 1086.87 453.668L1088.75 451.5C1090.3 453.414 1092.19 454.371 1094.43 454.371C1096.19 454.371 1097.55 453.876 1098.53 452.887C1099.52 451.897 1100.02 450.504 1100.02 448.707V446.891C1098.57 448.557 1096.6 449.391 1094.1 449.391C1091.62 449.391 1089.62 448.395 1088.08 446.402C1086.56 444.41 1085.8 441.695 1085.8 438.258ZM1089.43 438.668C1089.43 441.051 1089.92 442.926 1090.89 444.293C1091.87 445.647 1093.24 446.324 1095 446.324C1097.27 446.324 1098.95 445.289 1100.02 443.219V433.57C1098.91 431.552 1097.25 430.543 1095.04 430.543C1093.28 430.543 1091.9 431.227 1090.91 432.594C1089.92 433.961 1089.43 435.986 1089.43 438.668ZM1113.04 449H1109.43V427.867H1113.04V449ZM1109.14 422.262C1109.14 421.676 1109.31 421.181 1109.66 420.777C1110.03 420.374 1110.56 420.172 1111.27 420.172C1111.97 420.172 1112.5 420.374 1112.87 420.777C1113.23 421.181 1113.41 421.676 1113.41 422.262C1113.41 422.848 1113.23 423.336 1112.87 423.727C1112.5 424.117 1111.97 424.312 1111.27 424.312C1110.56 424.312 1110.03 424.117 1109.66 423.727C1109.31 423.336 1109.14 422.848 1109.14 422.262ZM1122.26 427.867L1122.38 430.523C1123.99 428.492 1126.1 427.477 1128.71 427.477C1133.17 427.477 1135.43 429.996 1135.46 435.035V449H1131.85V435.016C1131.84 433.492 1131.49 432.366 1130.8 431.637C1130.12 430.908 1129.06 430.543 1127.61 430.543C1126.44 430.543 1125.41 430.855 1124.53 431.48C1123.64 432.105 1122.95 432.926 1122.46 433.941V449H1118.84V427.867H1122.26ZM1157.75 443.707L1162.67 427.867H1166.54L1158.04 452.262C1156.73 455.777 1154.64 457.535 1151.77 457.535L1151.09 457.477L1149.74 457.223V454.293L1150.72 454.371C1151.94 454.371 1152.89 454.124 1153.57 453.629C1154.26 453.134 1154.83 452.229 1155.27 450.914L1156.07 448.766L1148.53 427.867H1152.48L1157.75 443.707ZM1168.51 438.238C1168.51 436.168 1168.92 434.306 1169.72 432.652C1170.54 430.999 1171.68 429.723 1173.12 428.824C1174.58 427.926 1176.24 427.477 1178.1 427.477C1180.98 427.477 1183.3 428.473 1185.07 430.465C1186.86 432.457 1187.75 435.107 1187.75 438.414V438.668C1187.75 440.725 1187.35 442.574 1186.56 444.215C1185.78 445.842 1184.65 447.112 1183.18 448.023C1181.72 448.935 1180.04 449.391 1178.14 449.391C1175.28 449.391 1172.95 448.395 1171.17 446.402C1169.4 444.41 1168.51 441.773 1168.51 438.492V438.238ZM1172.14 438.668C1172.14 441.012 1172.68 442.893 1173.77 444.312C1174.86 445.732 1176.32 446.441 1178.14 446.441C1179.98 446.441 1181.43 445.725 1182.52 444.293C1183.6 442.848 1184.14 440.829 1184.14 438.238C1184.14 435.921 1183.58 434.046 1182.48 432.613C1181.38 431.168 1179.92 430.445 1178.1 430.445C1176.32 430.445 1174.88 431.155 1173.79 432.574C1172.69 433.993 1172.14 436.025 1172.14 438.668ZM1205.33 446.91C1203.92 448.564 1201.86 449.391 1199.14 449.391C1196.88 449.391 1195.17 448.74 1193.98 447.438C1192.81 446.122 1192.22 444.182 1192.2 441.617V427.867H1195.82V441.52C1195.82 444.723 1197.12 446.324 1199.72 446.324C1202.48 446.324 1204.32 445.296 1205.23 443.238V427.867H1208.84V449H1205.41L1205.33 446.91ZM1224.57 431.109C1224.02 431.018 1223.43 430.973 1222.79 430.973C1220.42 430.973 1218.81 431.982 1217.96 434V449H1214.35V427.867H1217.87L1217.93 430.309C1219.11 428.421 1220.79 427.477 1222.96 427.477C1223.67 427.477 1224.2 427.568 1224.57 427.75V431.109ZM1236.95 438.258C1236.95 435.016 1237.72 432.411 1239.25 430.445C1240.79 428.466 1242.8 427.477 1245.29 427.477C1247.76 427.477 1249.72 428.323 1251.17 430.016V419H1254.78V449H1251.46L1251.29 446.734C1249.84 448.505 1247.83 449.391 1245.25 449.391C1242.8 449.391 1240.8 448.388 1239.25 446.383C1237.72 444.378 1236.95 441.76 1236.95 438.531V438.258ZM1240.56 438.668C1240.56 441.064 1241.06 442.939 1242.05 444.293C1243.04 445.647 1244.4 446.324 1246.15 446.324C1248.44 446.324 1250.11 445.296 1251.17 443.238V433.531C1250.09 431.539 1248.43 430.543 1246.19 430.543C1244.42 430.543 1243.04 431.227 1242.05 432.594C1241.06 433.961 1240.56 435.986 1240.56 438.668ZM1273.45 449C1273.24 448.583 1273.08 447.841 1272.95 446.773C1271.27 448.518 1269.26 449.391 1266.93 449.391C1264.85 449.391 1263.13 448.805 1261.79 447.633C1260.46 446.448 1259.8 444.951 1259.8 443.141C1259.8 440.94 1260.63 439.234 1262.3 438.023C1263.98 436.799 1266.34 436.188 1269.37 436.188H1272.89V434.527C1272.89 433.264 1272.51 432.262 1271.75 431.52C1271 430.764 1269.89 430.387 1268.41 430.387C1267.12 430.387 1266.04 430.712 1265.17 431.363C1264.3 432.014 1263.86 432.802 1263.86 433.727H1260.23C1260.23 432.672 1260.6 431.656 1261.34 430.68C1262.1 429.69 1263.11 428.909 1264.39 428.336C1265.68 427.763 1267.09 427.477 1268.63 427.477C1271.06 427.477 1272.97 428.089 1274.35 429.312C1275.73 430.523 1276.45 432.197 1276.5 434.332V444.059C1276.5 445.999 1276.75 447.542 1277.24 448.688V449H1273.45ZM1267.46 446.246C1268.59 446.246 1269.66 445.953 1270.68 445.367C1271.7 444.781 1272.43 444.02 1272.89 443.082V438.746H1270.05C1265.63 438.746 1263.41 440.042 1263.41 442.633C1263.41 443.766 1263.79 444.651 1264.55 445.289C1265.3 445.927 1266.27 446.246 1267.46 446.246ZM1288.77 443.707L1293.69 427.867H1297.55L1289.06 452.262C1287.74 455.777 1285.65 457.535 1282.79 457.535L1282.11 457.477L1280.76 457.223V454.293L1281.73 454.371C1282.96 454.371 1283.91 454.124 1284.59 453.629C1285.28 453.134 1285.84 452.229 1286.29 450.914L1287.09 448.766L1279.55 427.867H1283.49L1288.77 443.707ZM1315.62 422.75V427.867H1319.57V430.66H1315.62V443.766C1315.62 444.612 1315.8 445.25 1316.15 445.68C1316.5 446.096 1317.1 446.305 1317.95 446.305C1318.36 446.305 1318.93 446.227 1319.66 446.07V449C1318.71 449.26 1317.79 449.391 1316.89 449.391C1315.28 449.391 1314.06 448.902 1313.24 447.926C1312.42 446.949 1312.01 445.562 1312.01 443.766V430.66H1308.16V427.867H1312.01V422.75H1315.62ZM1322.46 438.238C1322.46 436.168 1322.86 434.306 1323.67 432.652C1324.49 430.999 1325.62 429.723 1327.07 428.824C1328.52 427.926 1330.18 427.477 1332.05 427.477C1334.92 427.477 1337.25 428.473 1339.02 430.465C1340.8 432.457 1341.7 435.107 1341.7 438.414V438.668C1341.7 440.725 1341.3 442.574 1340.5 444.215C1339.72 445.842 1338.6 447.112 1337.12 448.023C1335.67 448.935 1333.99 449.391 1332.09 449.391C1329.22 449.391 1326.9 448.395 1325.11 446.402C1323.34 444.41 1322.46 441.773 1322.46 438.492V438.238ZM1326.09 438.668C1326.09 441.012 1326.63 442.893 1327.71 444.312C1328.8 445.732 1330.26 446.441 1332.09 446.441C1333.92 446.441 1335.38 445.725 1336.46 444.293C1337.54 442.848 1338.08 440.829 1338.08 438.238C1338.08 435.921 1337.53 434.046 1336.42 432.613C1335.33 431.168 1333.87 430.445 1332.05 430.445C1330.26 430.445 1328.82 431.155 1327.73 432.574C1326.64 433.993 1326.09 436.025 1326.09 438.668ZM879.039 490.395C879.039 489.418 878.668 488.663 877.926 488.129C877.197 487.582 875.914 487.113 874.078 486.723C872.255 486.332 870.803 485.863 869.723 485.316C868.655 484.77 867.861 484.118 867.34 483.363C866.832 482.608 866.578 481.71 866.578 480.668C866.578 478.936 867.307 477.471 868.766 476.273C870.237 475.076 872.112 474.477 874.391 474.477C876.786 474.477 878.727 475.095 880.211 476.332C881.708 477.569 882.457 479.151 882.457 481.078H878.824C878.824 480.089 878.401 479.236 877.555 478.52C876.721 477.803 875.667 477.445 874.391 477.445C873.076 477.445 872.047 477.732 871.305 478.305C870.562 478.878 870.191 479.626 870.191 480.551C870.191 481.423 870.536 482.081 871.227 482.523C871.917 482.966 873.16 483.389 874.957 483.793C876.767 484.197 878.232 484.678 879.352 485.238C880.471 485.798 881.298 486.475 881.832 487.27C882.379 488.051 882.652 489.008 882.652 490.141C882.652 492.029 881.897 493.546 880.387 494.691C878.876 495.824 876.917 496.391 874.508 496.391C872.815 496.391 871.318 496.091 870.016 495.492C868.714 494.893 867.691 494.06 866.949 492.992C866.22 491.911 865.855 490.746 865.855 489.496H869.469C869.534 490.707 870.016 491.671 870.914 492.387C871.826 493.09 873.023 493.441 874.508 493.441C875.875 493.441 876.969 493.168 877.789 492.621C878.622 492.061 879.039 491.319 879.039 490.395ZM896.129 496.391C893.264 496.391 890.934 495.453 889.137 493.578C887.34 491.69 886.441 489.171 886.441 486.02V485.355C886.441 483.259 886.839 481.391 887.633 479.75C888.44 478.096 889.56 476.807 890.992 475.883C892.438 474.945 894 474.477 895.68 474.477C898.427 474.477 900.562 475.382 902.086 477.191C903.609 479.001 904.371 481.592 904.371 484.965V486.469H890.055C890.107 488.552 890.712 490.238 891.871 491.527C893.043 492.803 894.527 493.441 896.324 493.441C897.6 493.441 898.681 493.181 899.566 492.66C900.452 492.139 901.227 491.449 901.891 490.59L904.098 492.309C902.327 495.03 899.671 496.391 896.129 496.391ZM895.68 477.445C894.221 477.445 892.997 477.979 892.008 479.047C891.018 480.102 890.406 481.586 890.172 483.5H900.758V483.227C900.654 481.391 900.159 479.971 899.273 478.969C898.388 477.953 897.19 477.445 895.68 477.445ZM917.34 496.391C914.475 496.391 912.145 495.453 910.348 493.578C908.551 491.69 907.652 489.171 907.652 486.02V485.355C907.652 483.259 908.049 481.391 908.844 479.75C909.651 478.096 910.771 476.807 912.203 475.883C913.648 474.945 915.211 474.477 916.891 474.477C919.638 474.477 921.773 475.382 923.297 477.191C924.82 479.001 925.582 481.592 925.582 484.965V486.469H911.266C911.318 488.552 911.923 490.238 913.082 491.527C914.254 492.803 915.738 493.441 917.535 493.441C918.811 493.441 919.892 493.181 920.777 492.66C921.663 492.139 922.438 491.449 923.102 490.59L925.309 492.309C923.538 495.03 920.882 496.391 917.34 496.391ZM916.891 477.445C915.432 477.445 914.208 477.979 913.219 479.047C912.229 480.102 911.617 481.586 911.383 483.5H921.969V483.227C921.865 481.391 921.37 479.971 920.484 478.969C919.599 477.953 918.401 477.445 916.891 477.445ZM943.316 477.426C944.918 475.46 947.001 474.477 949.566 474.477C954.033 474.477 956.285 476.996 956.324 482.035V496H952.711V482.016C952.698 480.492 952.346 479.366 951.656 478.637C950.979 477.908 949.918 477.543 948.473 477.543C947.301 477.543 946.272 477.855 945.387 478.48C944.501 479.105 943.811 479.926 943.316 480.941V496H939.703V466H943.316V477.426ZM960.777 485.238C960.777 483.168 961.181 481.306 961.988 479.652C962.809 477.999 963.941 476.723 965.387 475.824C966.845 474.926 968.505 474.477 970.367 474.477C973.245 474.477 975.569 475.473 977.34 477.465C979.124 479.457 980.016 482.107 980.016 485.414V485.668C980.016 487.725 979.618 489.574 978.824 491.215C978.043 492.842 976.917 494.112 975.445 495.023C973.987 495.935 972.307 496.391 970.406 496.391C967.542 496.391 965.217 495.395 963.434 493.402C961.663 491.41 960.777 488.773 960.777 485.492V485.238ZM964.41 485.668C964.41 488.012 964.951 489.893 966.031 491.312C967.125 492.732 968.583 493.441 970.406 493.441C972.242 493.441 973.701 492.725 974.781 491.293C975.862 489.848 976.402 487.829 976.402 485.238C976.402 482.921 975.849 481.046 974.742 479.613C973.648 478.168 972.19 477.445 970.367 477.445C968.583 477.445 967.145 478.155 966.051 479.574C964.957 480.993 964.41 483.025 964.41 485.668ZM1003.26 491.02L1007.32 474.867H1010.93L1004.78 496H1001.85L996.715 479.984L991.715 496H988.785L982.652 474.867H986.246L990.406 490.688L995.328 474.867H998.238L1003.26 491.02ZM1027.95 474.867L1028.04 477.211C1029.59 475.388 1031.68 474.477 1034.31 474.477C1037.27 474.477 1039.28 475.609 1040.35 477.875C1041.05 476.859 1041.96 476.039 1043.08 475.414C1044.21 474.789 1045.55 474.477 1047.09 474.477C1051.72 474.477 1054.08 476.931 1054.16 481.84V496H1050.54V482.055C1050.54 480.544 1050.2 479.418 1049.51 478.676C1048.82 477.921 1047.66 477.543 1046.03 477.543C1044.69 477.543 1043.58 477.947 1042.69 478.754C1041.81 479.548 1041.29 480.622 1041.15 481.977V496H1037.52V482.152C1037.52 479.079 1036.01 477.543 1033 477.543C1030.63 477.543 1029.01 478.552 1028.14 480.57V496H1024.53V474.867H1027.95ZM1072.67 493.91C1071.27 495.564 1069.2 496.391 1066.48 496.391C1064.23 496.391 1062.51 495.74 1061.32 494.438C1060.15 493.122 1059.56 491.182 1059.55 488.617V474.867H1063.16V488.52C1063.16 491.723 1064.46 493.324 1067.07 493.324C1069.83 493.324 1071.66 492.296 1072.57 490.238V474.867H1076.19V496H1072.75L1072.67 493.91ZM1090.17 493.441C1091.46 493.441 1092.59 493.051 1093.55 492.27C1094.51 491.488 1095.05 490.512 1095.15 489.34H1098.57C1098.51 490.551 1098.09 491.703 1097.32 492.797C1096.55 493.891 1095.52 494.763 1094.23 495.414C1092.96 496.065 1091.6 496.391 1090.17 496.391C1087.29 496.391 1085 495.434 1083.3 493.52C1081.6 491.592 1080.76 488.962 1080.76 485.629V485.023C1080.76 482.966 1081.14 481.137 1081.89 479.535C1082.65 477.934 1083.73 476.69 1085.13 475.805C1086.55 474.919 1088.23 474.477 1090.15 474.477C1092.52 474.477 1094.49 475.186 1096.05 476.605C1097.63 478.025 1098.47 479.867 1098.57 482.133H1095.15C1095.05 480.766 1094.53 479.646 1093.59 478.773C1092.67 477.888 1091.52 477.445 1090.15 477.445C1088.32 477.445 1086.89 478.109 1085.88 479.438C1084.87 480.753 1084.37 482.66 1084.37 485.16V485.844C1084.37 488.279 1084.87 490.154 1085.88 491.469C1086.88 492.784 1088.31 493.441 1090.17 493.441ZM1106.25 477.426C1107.85 475.46 1109.93 474.477 1112.5 474.477C1116.96 474.477 1119.21 476.996 1119.25 482.035V496H1115.64V482.016C1115.63 480.492 1115.28 479.366 1114.59 478.637C1113.91 477.908 1112.85 477.543 1111.4 477.543C1110.23 477.543 1109.2 477.855 1108.32 478.48C1107.43 479.105 1106.74 479.926 1106.25 480.941V496H1102.63V466H1106.25V477.426ZM1141.5 490.707L1146.42 474.867H1150.29L1141.79 499.262C1140.48 502.777 1138.39 504.535 1135.52 504.535L1134.84 504.477L1133.49 504.223V501.293L1134.47 501.371C1135.69 501.371 1136.64 501.124 1137.32 500.629C1138.01 500.134 1138.58 499.229 1139.02 497.914L1139.82 495.766L1132.28 474.867H1136.23L1141.5 490.707ZM1152.26 485.238C1152.26 483.168 1152.67 481.306 1153.47 479.652C1154.29 477.999 1155.43 476.723 1156.87 475.824C1158.33 474.926 1159.99 474.477 1161.85 474.477C1164.73 474.477 1167.05 475.473 1168.82 477.465C1170.61 479.457 1171.5 482.107 1171.5 485.414V485.668C1171.5 487.725 1171.1 489.574 1170.31 491.215C1169.53 492.842 1168.4 494.112 1166.93 495.023C1165.47 495.935 1163.79 496.391 1161.89 496.391C1159.03 496.391 1156.7 495.395 1154.92 493.402C1153.15 491.41 1152.26 488.773 1152.26 485.492V485.238ZM1155.89 485.668C1155.89 488.012 1156.43 489.893 1157.52 491.312C1158.61 492.732 1160.07 493.441 1161.89 493.441C1163.73 493.441 1165.18 492.725 1166.27 491.293C1167.35 489.848 1167.89 487.829 1167.89 485.238C1167.89 482.921 1167.33 481.046 1166.23 479.613C1165.13 478.168 1163.67 477.445 1161.85 477.445C1160.07 477.445 1158.63 478.155 1157.54 479.574C1156.44 480.993 1155.89 483.025 1155.89 485.668ZM1189.08 493.91C1187.67 495.564 1185.61 496.391 1182.89 496.391C1180.63 496.391 1178.92 495.74 1177.73 494.438C1176.56 493.122 1175.97 491.182 1175.95 488.617V474.867H1179.57V488.52C1179.57 491.723 1180.87 493.324 1183.47 493.324C1186.23 493.324 1188.07 492.296 1188.98 490.238V474.867H1192.59V496H1189.16L1189.08 493.91ZM1220.33 490.395C1220.33 489.418 1219.96 488.663 1219.21 488.129C1218.49 487.582 1217.2 487.113 1215.37 486.723C1213.54 486.332 1212.09 485.863 1211.01 485.316C1209.94 484.77 1209.15 484.118 1208.63 483.363C1208.12 482.608 1207.87 481.71 1207.87 480.668C1207.87 478.936 1208.6 477.471 1210.05 476.273C1211.53 475.076 1213.4 474.477 1215.68 474.477C1218.08 474.477 1220.02 475.095 1221.5 476.332C1223 477.569 1223.75 479.151 1223.75 481.078H1220.11C1220.11 480.089 1219.69 479.236 1218.84 478.52C1218.01 477.803 1216.96 477.445 1215.68 477.445C1214.36 477.445 1213.34 477.732 1212.59 478.305C1211.85 478.878 1211.48 479.626 1211.48 480.551C1211.48 481.423 1211.83 482.081 1212.52 482.523C1213.21 482.966 1214.45 483.389 1216.25 483.793C1218.06 484.197 1219.52 484.678 1220.64 485.238C1221.76 485.798 1222.59 486.475 1223.12 487.27C1223.67 488.051 1223.94 489.008 1223.94 490.141C1223.94 492.029 1223.19 493.546 1221.68 494.691C1220.17 495.824 1218.21 496.391 1215.8 496.391C1214.1 496.391 1212.61 496.091 1211.3 495.492C1210 494.893 1208.98 494.06 1208.24 492.992C1207.51 491.911 1207.14 490.746 1207.14 489.496H1210.76C1210.82 490.707 1211.3 491.671 1212.2 492.387C1213.11 493.09 1214.31 493.441 1215.8 493.441C1217.16 493.441 1218.26 493.168 1219.08 492.621C1219.91 492.061 1220.33 491.319 1220.33 490.395ZM1241.7 496C1241.49 495.583 1241.32 494.841 1241.19 493.773C1239.51 495.518 1237.5 496.391 1235.17 496.391C1233.09 496.391 1231.38 495.805 1230.04 494.633C1228.71 493.448 1228.04 491.951 1228.04 490.141C1228.04 487.94 1228.88 486.234 1230.54 485.023C1232.22 483.799 1234.58 483.188 1237.61 483.188H1241.13V481.527C1241.13 480.264 1240.75 479.262 1240 478.52C1239.24 477.764 1238.13 477.387 1236.66 477.387C1235.37 477.387 1234.29 477.712 1233.41 478.363C1232.54 479.014 1232.11 479.802 1232.11 480.727H1228.47C1228.47 479.672 1228.84 478.656 1229.59 477.68C1230.34 476.69 1231.36 475.909 1232.63 475.336C1233.92 474.763 1235.33 474.477 1236.87 474.477C1239.31 474.477 1241.21 475.089 1242.59 476.312C1243.97 477.523 1244.69 479.197 1244.74 481.332V491.059C1244.74 492.999 1244.99 494.542 1245.48 495.688V496H1241.7ZM1235.7 493.246C1236.83 493.246 1237.91 492.953 1238.92 492.367C1239.94 491.781 1240.67 491.02 1241.13 490.082V485.746H1238.3C1233.87 485.746 1231.66 487.042 1231.66 489.633C1231.66 490.766 1232.03 491.651 1232.79 492.289C1233.54 492.927 1234.51 493.246 1235.7 493.246ZM1257.07 491.098L1262.3 474.867H1265.99L1258.41 496H1255.66L1248 474.867H1251.7L1257.07 491.098ZM1277.96 496.391C1275.1 496.391 1272.77 495.453 1270.97 493.578C1269.18 491.69 1268.28 489.171 1268.28 486.02V485.355C1268.28 483.259 1268.67 481.391 1269.47 479.75C1270.28 478.096 1271.4 476.807 1272.83 475.883C1274.27 474.945 1275.84 474.477 1277.52 474.477C1280.26 474.477 1282.4 475.382 1283.92 477.191C1285.45 479.001 1286.21 481.592 1286.21 484.965V486.469H1271.89C1271.94 488.552 1272.55 490.238 1273.71 491.527C1274.88 492.803 1276.36 493.441 1278.16 493.441C1279.44 493.441 1280.52 493.181 1281.4 492.66C1282.29 492.139 1283.06 491.449 1283.73 490.59L1285.93 492.309C1284.16 495.03 1281.51 496.391 1277.96 496.391ZM1277.52 477.445C1276.06 477.445 1274.83 477.979 1273.84 479.047C1272.85 480.102 1272.24 481.586 1272.01 483.5H1282.59V483.227C1282.49 481.391 1281.99 479.971 1281.11 478.969C1280.22 477.953 1279.03 477.445 1277.52 477.445ZM1294.45 487.973H1291.19L1290.93 467.562H1294.72L1294.45 487.973ZM1290.8 494.184C1290.8 493.598 1290.97 493.109 1291.32 492.719C1291.69 492.315 1292.22 492.113 1292.93 492.113C1293.63 492.113 1294.16 492.315 1294.53 492.719C1294.89 493.109 1295.07 493.598 1295.07 494.184C1295.07 494.77 1294.89 495.258 1294.53 495.648C1294.16 496.026 1293.63 496.215 1292.93 496.215C1292.22 496.215 1291.69 496.026 1291.32 495.648C1290.97 495.258 1290.8 494.77 1290.8 494.184Z" fill="black"/>
<circle cx="383.5" cy="468.5" r="297.5" fill="#E8F0B4"/>
<path d="M215.57 434.078C215.57 431.865 214.789 430.172 213.227 429C211.664 427.802 208.852 426.552 204.789 425.25C200.727 423.922 197.51 422.62 195.141 421.344C188.682 417.854 185.453 413.154 185.453 407.242C185.453 404.169 186.312 401.435 188.031 399.039C189.776 396.617 192.263 394.729 195.492 393.375C198.747 392.021 202.393 391.344 206.43 391.344C210.492 391.344 214.112 392.086 217.289 393.57C220.466 395.029 222.927 397.099 224.672 399.781C226.443 402.464 227.328 405.51 227.328 408.922H215.609C215.609 406.318 214.789 404.299 213.148 402.867C211.508 401.409 209.203 400.68 206.234 400.68C203.37 400.68 201.143 401.292 199.555 402.516C197.966 403.714 197.172 405.302 197.172 407.281C197.172 409.13 198.096 410.68 199.945 411.93C201.82 413.18 204.568 414.352 208.188 415.445C214.854 417.451 219.711 419.938 222.758 422.906C225.805 425.875 227.328 429.573 227.328 434C227.328 438.922 225.466 442.789 221.742 445.602C218.018 448.388 213.005 449.781 206.703 449.781C202.328 449.781 198.344 448.987 194.75 447.398C191.156 445.784 188.409 443.583 186.508 440.797C184.633 438.01 183.695 434.781 183.695 431.109H195.453C195.453 437.385 199.203 440.523 206.703 440.523C209.49 440.523 211.664 439.964 213.227 438.844C214.789 437.698 215.57 436.109 215.57 434.078ZM259.047 449C258.526 447.984 258.148 446.721 257.914 445.211C255.18 448.258 251.625 449.781 247.25 449.781C243.109 449.781 239.672 448.583 236.938 446.188C234.229 443.792 232.875 440.771 232.875 437.125C232.875 432.646 234.529 429.208 237.836 426.812C241.169 424.417 245.974 423.206 252.25 423.18H257.445V420.758C257.445 418.805 256.938 417.242 255.922 416.07C254.932 414.898 253.357 414.312 251.195 414.312C249.294 414.312 247.797 414.768 246.703 415.68C245.635 416.591 245.102 417.841 245.102 419.43H233.812C233.812 416.982 234.568 414.716 236.078 412.633C237.589 410.549 239.724 408.922 242.484 407.75C245.245 406.552 248.344 405.953 251.781 405.953C256.99 405.953 261.117 407.268 264.164 409.898C267.237 412.503 268.773 416.174 268.773 420.914V439.234C268.799 443.245 269.359 446.279 270.453 448.336V449H259.047ZM249.711 441.148C251.378 441.148 252.914 440.784 254.32 440.055C255.727 439.299 256.768 438.297 257.445 437.047V429.781H253.227C247.576 429.781 244.568 431.734 244.203 435.641L244.164 436.305C244.164 437.711 244.659 438.87 245.648 439.781C246.638 440.693 247.992 441.148 249.711 441.148ZM292.641 435.211L300.492 406.734H312.289L298.031 449H287.25L272.992 406.734H284.789L292.641 435.211ZM336.195 449.781C329.997 449.781 324.945 447.88 321.039 444.078C317.159 440.276 315.219 435.211 315.219 428.883V427.789C315.219 423.544 316.039 419.755 317.68 416.422C319.32 413.062 321.638 410.484 324.633 408.688C327.654 406.865 331.091 405.953 334.945 405.953C340.727 405.953 345.271 407.776 348.578 411.422C351.911 415.068 353.578 420.237 353.578 426.93V431.539H326.664C327.029 434.299 328.122 436.513 329.945 438.18C331.794 439.846 334.125 440.68 336.938 440.68C341.286 440.68 344.685 439.104 347.133 435.953L352.68 442.164C350.987 444.56 348.695 446.435 345.805 447.789C342.914 449.117 339.711 449.781 336.195 449.781ZM334.906 415.094C332.667 415.094 330.844 415.849 329.438 417.359C328.057 418.87 327.172 421.031 326.781 423.844H342.484V422.945C342.432 420.445 341.755 418.518 340.453 417.164C339.151 415.784 337.302 415.094 334.906 415.094ZM414.906 424.352H392.406V439.586H418.812V449H380.688V392.125H418.734V401.617H392.406V415.172H414.906V424.352ZM449.438 449C448.917 447.984 448.539 446.721 448.305 445.211C445.57 448.258 442.016 449.781 437.641 449.781C433.5 449.781 430.062 448.583 427.328 446.188C424.62 443.792 423.266 440.771 423.266 437.125C423.266 432.646 424.919 429.208 428.227 426.812C431.56 424.417 436.365 423.206 442.641 423.18H447.836V420.758C447.836 418.805 447.328 417.242 446.312 416.07C445.323 414.898 443.747 414.312 441.586 414.312C439.685 414.312 438.188 414.768 437.094 415.68C436.026 416.591 435.492 417.841 435.492 419.43H424.203C424.203 416.982 424.958 414.716 426.469 412.633C427.979 410.549 430.115 408.922 432.875 407.75C435.635 406.552 438.734 405.953 442.172 405.953C447.38 405.953 451.508 407.268 454.555 409.898C457.628 412.503 459.164 416.174 459.164 420.914V439.234C459.19 443.245 459.75 446.279 460.844 448.336V449H449.438ZM440.102 441.148C441.768 441.148 443.305 440.784 444.711 440.055C446.117 439.299 447.159 438.297 447.836 437.047V429.781H443.617C437.966 429.781 434.958 431.734 434.594 435.641L434.555 436.305C434.555 437.711 435.049 438.87 436.039 439.781C437.029 440.693 438.383 441.148 440.102 441.148ZM491.586 417.32C490.049 417.112 488.695 417.008 487.523 417.008C483.253 417.008 480.453 418.453 479.125 421.344V449H467.836V406.734H478.5L478.812 411.773C481.078 407.893 484.216 405.953 488.227 405.953C489.477 405.953 490.648 406.122 491.742 406.461L491.586 417.32ZM512.523 396.344V406.734H519.75V415.016H512.523V436.109C512.523 437.672 512.823 438.792 513.422 439.469C514.021 440.146 515.167 440.484 516.859 440.484C518.109 440.484 519.216 440.393 520.18 440.211V448.766C517.966 449.443 515.688 449.781 513.344 449.781C505.427 449.781 501.391 445.784 501.234 437.789V415.016H495.062V406.734H501.234V396.344H512.523ZM537.055 411.344C540.049 407.75 543.812 405.953 548.344 405.953C557.51 405.953 562.159 411.279 562.289 421.93V449H551V422.242C551 419.82 550.479 418.036 549.438 416.891C548.396 415.719 546.664 415.133 544.242 415.133C540.935 415.133 538.539 416.409 537.055 418.961V449H525.766V389H537.055V411.344ZM571.391 443.453C571.391 441.656 571.99 440.198 573.188 439.078C574.411 437.958 575.935 437.398 577.758 437.398C579.607 437.398 581.13 437.958 582.328 439.078C583.552 440.198 584.164 441.656 584.164 443.453C584.164 445.224 583.565 446.669 582.367 447.789C581.169 448.883 579.633 449.43 577.758 449.43C575.909 449.43 574.385 448.883 573.188 447.789C571.99 446.669 571.391 445.224 571.391 443.453ZM215.57 528.078C215.57 525.865 214.789 524.172 213.227 523C211.664 521.802 208.852 520.552 204.789 519.25C200.727 517.922 197.51 516.62 195.141 515.344C188.682 511.854 185.453 507.154 185.453 501.242C185.453 498.169 186.312 495.435 188.031 493.039C189.776 490.617 192.263 488.729 195.492 487.375C198.747 486.021 202.393 485.344 206.43 485.344C210.492 485.344 214.112 486.086 217.289 487.57C220.466 489.029 222.927 491.099 224.672 493.781C226.443 496.464 227.328 499.51 227.328 502.922H215.609C215.609 500.318 214.789 498.299 213.148 496.867C211.508 495.409 209.203 494.68 206.234 494.68C203.37 494.68 201.143 495.292 199.555 496.516C197.966 497.714 197.172 499.302 197.172 501.281C197.172 503.13 198.096 504.68 199.945 505.93C201.82 507.18 204.568 508.352 208.188 509.445C214.854 511.451 219.711 513.938 222.758 516.906C225.805 519.875 227.328 523.573 227.328 528C227.328 532.922 225.466 536.789 221.742 539.602C218.018 542.388 213.005 543.781 206.703 543.781C202.328 543.781 198.344 542.987 194.75 541.398C191.156 539.784 188.409 537.583 186.508 534.797C184.633 532.01 183.695 528.781 183.695 525.109H195.453C195.453 531.385 199.203 534.523 206.703 534.523C209.49 534.523 211.664 533.964 213.227 532.844C214.789 531.698 215.57 530.109 215.57 528.078ZM259.047 543C258.526 541.984 258.148 540.721 257.914 539.211C255.18 542.258 251.625 543.781 247.25 543.781C243.109 543.781 239.672 542.583 236.938 540.188C234.229 537.792 232.875 534.771 232.875 531.125C232.875 526.646 234.529 523.208 237.836 520.812C241.169 518.417 245.974 517.206 252.25 517.18H257.445V514.758C257.445 512.805 256.938 511.242 255.922 510.07C254.932 508.898 253.357 508.312 251.195 508.312C249.294 508.312 247.797 508.768 246.703 509.68C245.635 510.591 245.102 511.841 245.102 513.43H233.812C233.812 510.982 234.568 508.716 236.078 506.633C237.589 504.549 239.724 502.922 242.484 501.75C245.245 500.552 248.344 499.953 251.781 499.953C256.99 499.953 261.117 501.268 264.164 503.898C267.237 506.503 268.773 510.174 268.773 514.914V533.234C268.799 537.245 269.359 540.279 270.453 542.336V543H259.047ZM249.711 535.148C251.378 535.148 252.914 534.784 254.32 534.055C255.727 533.299 256.768 532.297 257.445 531.047V523.781H253.227C247.576 523.781 244.568 525.734 244.203 529.641L244.164 530.305C244.164 531.711 244.659 532.87 245.648 533.781C246.638 534.693 247.992 535.148 249.711 535.148ZM292.641 529.211L300.492 500.734H312.289L298.031 543H287.25L272.992 500.734H284.789L292.641 529.211ZM336.195 543.781C329.997 543.781 324.945 541.88 321.039 538.078C317.159 534.276 315.219 529.211 315.219 522.883V521.789C315.219 517.544 316.039 513.755 317.68 510.422C319.32 507.062 321.638 504.484 324.633 502.688C327.654 500.865 331.091 499.953 334.945 499.953C340.727 499.953 345.271 501.776 348.578 505.422C351.911 509.068 353.578 514.237 353.578 520.93V525.539H326.664C327.029 528.299 328.122 530.513 329.945 532.18C331.794 533.846 334.125 534.68 336.938 534.68C341.286 534.68 344.685 533.104 347.133 529.953L352.68 536.164C350.987 538.56 348.695 540.435 345.805 541.789C342.914 543.117 339.711 543.781 336.195 543.781ZM334.906 509.094C332.667 509.094 330.844 509.849 329.438 511.359C328.057 512.87 327.172 515.031 326.781 517.844H342.484V516.945C342.432 514.445 341.755 512.518 340.453 511.164C339.151 509.784 337.302 509.094 334.906 509.094ZM396 486.125L410.609 527.375L425.141 486.125H440.531V543H428.773V527.453L429.945 500.617L414.594 543H406.547L391.234 500.656L392.406 527.453V543H380.688V486.125H396ZM448.266 521.477C448.266 517.284 449.073 513.547 450.688 510.266C452.302 506.984 454.62 504.445 457.641 502.648C460.688 500.852 464.216 499.953 468.227 499.953C473.93 499.953 478.578 501.698 482.172 505.188C485.792 508.677 487.81 513.417 488.227 519.406L488.305 522.297C488.305 528.781 486.495 533.99 482.875 537.922C479.255 541.828 474.398 543.781 468.305 543.781C462.211 543.781 457.341 541.828 453.695 537.922C450.076 534.016 448.266 528.703 448.266 521.984V521.477ZM459.555 522.297C459.555 526.307 460.31 529.38 461.82 531.516C463.331 533.625 465.492 534.68 468.305 534.68C471.039 534.68 473.174 533.638 474.711 531.555C476.247 529.445 477.016 526.086 477.016 521.477C477.016 517.544 476.247 514.497 474.711 512.336C473.174 510.174 471.013 509.094 468.227 509.094C465.466 509.094 463.331 510.174 461.82 512.336C460.31 514.471 459.555 517.792 459.555 522.297ZM505.648 500.734L506 505.617C509.021 501.841 513.07 499.953 518.148 499.953C522.628 499.953 525.961 501.268 528.148 503.898C530.336 506.529 531.456 510.461 531.508 515.695V543H520.219V515.969C520.219 513.573 519.698 511.841 518.656 510.773C517.615 509.68 515.883 509.133 513.461 509.133C510.284 509.133 507.901 510.487 506.312 513.195V543H495.023V500.734H505.648ZM559.555 543.781C553.357 543.781 548.305 541.88 544.398 538.078C540.518 534.276 538.578 529.211 538.578 522.883V521.789C538.578 517.544 539.398 513.755 541.039 510.422C542.68 507.062 544.997 504.484 547.992 502.688C551.013 500.865 554.451 499.953 558.305 499.953C564.086 499.953 568.63 501.776 571.938 505.422C575.271 509.068 576.938 514.237 576.938 520.93V525.539H550.023C550.388 528.299 551.482 530.513 553.305 532.18C555.154 533.846 557.484 534.68 560.297 534.68C564.646 534.68 568.044 533.104 570.492 529.953L576.039 536.164C574.346 538.56 572.055 540.435 569.164 541.789C566.273 543.117 563.07 543.781 559.555 543.781ZM558.266 509.094C556.026 509.094 554.203 509.849 552.797 511.359C551.417 512.87 550.531 515.031 550.141 517.844H565.844V516.945C565.792 514.445 565.115 512.518 563.812 511.164C562.51 509.784 560.661 509.094 558.266 509.094ZM598.617 527.023L606.43 500.734H618.539L601.547 549.562L600.609 551.789C598.083 557.31 593.917 560.07 588.109 560.07C586.469 560.07 584.802 559.823 583.109 559.328V550.773L584.828 550.812C586.964 550.812 588.552 550.487 589.594 549.836C590.661 549.185 591.495 548.104 592.094 546.594L593.422 543.117L578.617 500.734H590.766L598.617 527.023ZM617.016 537.453C617.016 535.656 617.615 534.198 618.812 533.078C620.036 531.958 621.56 531.398 623.383 531.398C625.232 531.398 626.755 531.958 627.953 533.078C629.177 534.198 629.789 535.656 629.789 537.453C629.789 539.224 629.19 540.669 627.992 541.789C626.794 542.883 625.258 543.43 623.383 543.43C621.534 543.43 620.01 542.883 618.812 541.789C617.615 540.669 617.016 539.224 617.016 537.453Z" fill="black"/>
</svg>
