<svg width="1440" height="766" viewBox="0 0 1440 766" fill="none" xmlns="http://www.w3.org/2000/svg">
<path d="M687.031 484.328C1018.22 745.322 1503.77 716.059 1497.13 181.069C1497.08 177.017 1497.13 172.872 1497.31 168.824C1498.9 133.486 1506.49 -47.0707 1497.03 -82.6673C1486.53 -122.167 -68.9692 -417.172 -60.9692 65.3279C-52.9693 547.828 354.562 222.323 687.031 484.328Z" fill="#A5DA4A"/>
<circle cx="383.5" cy="468.5" r="297.5" fill="#E8F0B4"/>
<path d="M215.57 434.078C215.57 431.865 214.789 430.172 213.227 429C211.664 427.802 208.852 426.552 204.789 425.25C200.727 423.922 197.51 422.62 195.141 421.344C188.682 417.854 185.453 413.154 185.453 407.242C185.453 404.169 186.312 401.435 188.031 399.039C189.776 396.617 192.263 394.729 195.492 393.375C198.747 392.021 202.393 391.344 206.43 391.344C210.492 391.344 214.112 392.086 217.289 393.57C220.466 395.029 222.927 397.099 224.672 399.781C226.443 402.464 227.328 405.51 227.328 408.922H215.609C215.609 406.318 214.789 404.299 213.148 402.867C211.508 401.409 209.203 400.68 206.234 400.68C203.37 400.68 201.143 401.292 199.555 402.516C197.966 403.714 197.172 405.302 197.172 407.281C197.172 409.13 198.096 410.68 199.945 411.93C201.82 413.18 204.568 414.352 208.188 415.445C214.854 417.451 219.711 419.938 222.758 422.906C225.805 425.875 227.328 429.573 227.328 434C227.328 438.922 225.466 442.789 221.742 445.602C218.018 448.388 213.005 449.781 206.703 449.781C202.328 449.781 198.344 448.987 194.75 447.398C191.156 445.784 188.409 443.583 186.508 440.797C184.633 438.01 183.695 434.781 183.695 431.109H195.453C195.453 437.385 199.203 440.523 206.703 440.523C209.49 440.523 211.664 439.964 213.227 438.844C214.789 437.698 215.57 436.109 215.57 434.078ZM259.047 449C258.526 447.984 258.148 446.721 257.914 445.211C255.18 448.258 251.625 449.781 247.25 449.781C243.109 449.781 239.672 448.583 236.938 446.188C234.229 443.792 232.875 440.771 232.875 437.125C232.875 432.646 234.529 429.208 237.836 426.812C241.169 424.417 245.974 423.206 252.25 423.18H257.445V420.758C257.445 418.805 256.938 417.242 255.922 416.07C254.932 414.898 253.357 414.312 251.195 414.312C249.294 414.312 247.797 414.768 246.703 415.68C245.635 416.591 245.102 417.841 245.102 419.43H233.812C233.812 416.982 234.568 414.716 236.078 412.633C237.589 410.549 239.724 408.922 242.484 407.75C245.245 406.552 248.344 405.953 251.781 405.953C256.99 405.953 261.117 407.268 264.164 409.898C267.237 412.503 268.773 416.174 268.773 420.914V439.234C268.799 443.245 269.359 446.279 270.453 448.336V449H259.047ZM249.711 441.148C251.378 441.148 252.914 440.784 254.32 440.055C255.727 439.299 256.768 438.297 257.445 437.047V429.781H253.227C247.576 429.781 244.568 431.734 244.203 435.641L244.164 436.305C244.164 437.711 244.659 438.87 245.648 439.781C246.638 440.693 247.992 441.148 249.711 441.148ZM292.641 435.211L300.492 406.734H312.289L298.031 449H287.25L272.992 406.734H284.789L292.641 435.211ZM336.195 449.781C329.997 449.781 324.945 447.88 321.039 444.078C317.159 440.276 315.219 435.211 315.219 428.883V427.789C315.219 423.544 316.039 419.755 317.68 416.422C319.32 413.062 321.638 410.484 324.633 408.688C327.654 406.865 331.091 405.953 334.945 405.953C340.727 405.953 345.271 407.776 348.578 411.422C351.911 415.068 353.578 420.237 353.578 426.93V431.539H326.664C327.029 434.299 328.122 436.513 329.945 438.18C331.794 439.846 334.125 440.68 336.938 440.68C341.286 440.68 344.685 439.104 347.133 435.953L352.68 442.164C350.987 444.56 348.695 446.435 345.805 447.789C342.914 449.117 339.711 449.781 336.195 449.781ZM334.906 415.094C332.667 415.094 330.844 415.849 329.438 417.359C328.057 418.87 327.172 421.031 326.781 423.844H342.484V422.945C342.432 420.445 341.755 418.518 340.453 417.164C339.151 415.784 337.302 415.094 334.906 415.094ZM414.906 424.352H392.406V439.586H418.812V449H380.688V392.125H418.734V401.617H392.406V415.172H414.906V424.352ZM449.438 449C448.917 447.984 448.539 446.721 448.305 445.211C445.57 448.258 442.016 449.781 437.641 449.781C433.5 449.781 430.062 448.583 427.328 446.188C424.62 443.792 423.266 440.771 423.266 437.125C423.266 432.646 424.919 429.208 428.227 426.812C431.56 424.417 436.365 423.206 442.641 423.18H447.836V420.758C447.836 418.805 447.328 417.242 446.312 416.07C445.323 414.898 443.747 414.312 441.586 414.312C439.685 414.312 438.188 414.768 437.094 415.68C436.026 416.591 435.492 417.841 435.492 419.43H424.203C424.203 416.982 424.958 414.716 426.469 412.633C427.979 410.549 430.115 408.922 432.875 407.75C435.635 406.552 438.734 405.953 442.172 405.953C447.38 405.953 451.508 407.268 454.555 409.898C457.628 412.503 459.164 416.174 459.164 420.914V439.234C459.19 443.245 459.75 446.279 460.844 448.336V449H449.438ZM440.102 441.148C441.768 441.148 443.305 440.784 444.711 440.055C446.117 439.299 447.159 438.297 447.836 437.047V429.781H443.617C437.966 429.781 434.958 431.734 434.594 435.641L434.555 436.305C434.555 437.711 435.049 438.87 436.039 439.781C437.029 440.693 438.383 441.148 440.102 441.148ZM491.586 417.32C490.049 417.112 488.695 417.008 487.523 417.008C483.253 417.008 480.453 418.453 479.125 421.344V449H467.836V406.734H478.5L478.812 411.773C481.078 407.893 484.216 405.953 488.227 405.953C489.477 405.953 490.648 406.122 491.742 406.461L491.586 417.32ZM512.523 396.344V406.734H519.75V415.016H512.523V436.109C512.523 437.672 512.823 438.792 513.422 439.469C514.021 440.146 515.167 440.484 516.859 440.484C518.109 440.484 519.216 440.393 520.18 440.211V448.766C517.966 449.443 515.688 449.781 513.344 449.781C505.427 449.781 501.391 445.784 501.234 437.789V415.016H495.062V406.734H501.234V396.344H512.523ZM537.055 411.344C540.049 407.75 543.812 405.953 548.344 405.953C557.51 405.953 562.159 411.279 562.289 421.93V449H551V422.242C551 419.82 550.479 418.036 549.438 416.891C548.396 415.719 546.664 415.133 544.242 415.133C540.935 415.133 538.539 416.409 537.055 418.961V449H525.766V389H537.055V411.344ZM571.391 443.453C571.391 441.656 571.99 440.198 573.188 439.078C574.411 437.958 575.935 437.398 577.758 437.398C579.607 437.398 581.13 437.958 582.328 439.078C583.552 440.198 584.164 441.656 584.164 443.453C584.164 445.224 583.565 446.669 582.367 447.789C581.169 448.883 579.633 449.43 577.758 449.43C575.909 449.43 574.385 448.883 573.188 447.789C571.99 446.669 571.391 445.224 571.391 443.453ZM215.57 528.078C215.57 525.865 214.789 524.172 213.227 523C211.664 521.802 208.852 520.552 204.789 519.25C200.727 517.922 197.51 516.62 195.141 515.344C188.682 511.854 185.453 507.154 185.453 501.242C185.453 498.169 186.312 495.435 188.031 493.039C189.776 490.617 192.263 488.729 195.492 487.375C198.747 486.021 202.393 485.344 206.43 485.344C210.492 485.344 214.112 486.086 217.289 487.57C220.466 489.029 222.927 491.099 224.672 493.781C226.443 496.464 227.328 499.51 227.328 502.922H215.609C215.609 500.318 214.789 498.299 213.148 496.867C211.508 495.409 209.203 494.68 206.234 494.68C203.37 494.68 201.143 495.292 199.555 496.516C197.966 497.714 197.172 499.302 197.172 501.281C197.172 503.13 198.096 504.68 199.945 505.93C201.82 507.18 204.568 508.352 208.188 509.445C214.854 511.451 219.711 513.938 222.758 516.906C225.805 519.875 227.328 523.573 227.328 528C227.328 532.922 225.466 536.789 221.742 539.602C218.018 542.388 213.005 543.781 206.703 543.781C202.328 543.781 198.344 542.987 194.75 541.398C191.156 539.784 188.409 537.583 186.508 534.797C184.633 532.01 183.695 528.781 183.695 525.109H195.453C195.453 531.385 199.203 534.523 206.703 534.523C209.49 534.523 211.664 533.964 213.227 532.844C214.789 531.698 215.57 530.109 215.57 528.078ZM259.047 543C258.526 541.984 258.148 540.721 257.914 539.211C255.18 542.258 251.625 543.781 247.25 543.781C243.109 543.781 239.672 542.583 236.938 540.188C234.229 537.792 232.875 534.771 232.875 531.125C232.875 526.646 234.529 523.208 237.836 520.812C241.169 518.417 245.974 517.206 252.25 517.18H257.445V514.758C257.445 512.805 256.938 511.242 255.922 510.07C254.932 508.898 253.357 508.312 251.195 508.312C249.294 508.312 247.797 508.768 246.703 509.68C245.635 510.591 245.102 511.841 245.102 513.43H233.812C233.812 510.982 234.568 508.716 236.078 506.633C237.589 504.549 239.724 502.922 242.484 501.75C245.245 500.552 248.344 499.953 251.781 499.953C256.99 499.953 261.117 501.268 264.164 503.898C267.237 506.503 268.773 510.174 268.773 514.914V533.234C268.799 537.245 269.359 540.279 270.453 542.336V543H259.047ZM249.711 535.148C251.378 535.148 252.914 534.784 254.32 534.055C255.727 533.299 256.768 532.297 257.445 531.047V523.781H253.227C247.576 523.781 244.568 525.734 244.203 529.641L244.164 530.305C244.164 531.711 244.659 532.87 245.648 533.781C246.638 534.693 247.992 535.148 249.711 535.148ZM292.641 529.211L300.492 500.734H312.289L298.031 543H287.25L272.992 500.734H284.789L292.641 529.211ZM336.195 543.781C329.997 543.781 324.945 541.88 321.039 538.078C317.159 534.276 315.219 529.211 315.219 522.883V521.789C315.219 517.544 316.039 513.755 317.68 510.422C319.32 507.062 321.638 504.484 324.633 502.688C327.654 500.865 331.091 499.953 334.945 499.953C340.727 499.953 345.271 501.776 348.578 505.422C351.911 509.068 353.578 514.237 353.578 520.93V525.539H326.664C327.029 528.299 328.122 530.513 329.945 532.18C331.794 533.846 334.125 534.68 336.938 534.68C341.286 534.68 344.685 533.104 347.133 529.953L352.68 536.164C350.987 538.56 348.695 540.435 345.805 541.789C342.914 543.117 339.711 543.781 336.195 543.781ZM334.906 509.094C332.667 509.094 330.844 509.849 329.438 511.359C328.057 512.87 327.172 515.031 326.781 517.844H342.484V516.945C342.432 514.445 341.755 512.518 340.453 511.164C339.151 509.784 337.302 509.094 334.906 509.094ZM396 486.125L410.609 527.375L425.141 486.125H440.531V543H428.773V527.453L429.945 500.617L414.594 543H406.547L391.234 500.656L392.406 527.453V543H380.688V486.125H396ZM448.266 521.477C448.266 517.284 449.073 513.547 450.688 510.266C452.302 506.984 454.62 504.445 457.641 502.648C460.688 500.852 464.216 499.953 468.227 499.953C473.93 499.953 478.578 501.698 482.172 505.188C485.792 508.677 487.81 513.417 488.227 519.406L488.305 522.297C488.305 528.781 486.495 533.99 482.875 537.922C479.255 541.828 474.398 543.781 468.305 543.781C462.211 543.781 457.341 541.828 453.695 537.922C450.076 534.016 448.266 528.703 448.266 521.984V521.477ZM459.555 522.297C459.555 526.307 460.31 529.38 461.82 531.516C463.331 533.625 465.492 534.68 468.305 534.68C471.039 534.68 473.174 533.638 474.711 531.555C476.247 529.445 477.016 526.086 477.016 521.477C477.016 517.544 476.247 514.497 474.711 512.336C473.174 510.174 471.013 509.094 468.227 509.094C465.466 509.094 463.331 510.174 461.82 512.336C460.31 514.471 459.555 517.792 459.555 522.297ZM505.648 500.734L506 505.617C509.021 501.841 513.07 499.953 518.148 499.953C522.628 499.953 525.961 501.268 528.148 503.898C530.336 506.529 531.456 510.461 531.508 515.695V543H520.219V515.969C520.219 513.573 519.698 511.841 518.656 510.773C517.615 509.68 515.883 509.133 513.461 509.133C510.284 509.133 507.901 510.487 506.312 513.195V543H495.023V500.734H505.648ZM559.555 543.781C553.357 543.781 548.305 541.88 544.398 538.078C540.518 534.276 538.578 529.211 538.578 522.883V521.789C538.578 517.544 539.398 513.755 541.039 510.422C542.68 507.062 544.997 504.484 547.992 502.688C551.013 500.865 554.451 499.953 558.305 499.953C564.086 499.953 568.63 501.776 571.938 505.422C575.271 509.068 576.938 514.237 576.938 520.93V525.539H550.023C550.388 528.299 551.482 530.513 553.305 532.18C555.154 533.846 557.484 534.68 560.297 534.68C564.646 534.68 568.044 533.104 570.492 529.953L576.039 536.164C574.346 538.56 572.055 540.435 569.164 541.789C566.273 543.117 563.07 543.781 559.555 543.781ZM558.266 509.094C556.026 509.094 554.203 509.849 552.797 511.359C551.417 512.87 550.531 515.031 550.141 517.844H565.844V516.945C565.792 514.445 565.115 512.518 563.812 511.164C562.51 509.784 560.661 509.094 558.266 509.094ZM598.617 527.023L606.43 500.734H618.539L601.547 549.562L600.609 551.789C598.083 557.31 593.917 560.07 588.109 560.07C586.469 560.07 584.802 559.823 583.109 559.328V550.773L584.828 550.812C586.964 550.812 588.552 550.487 589.594 549.836C590.661 549.185 591.495 548.104 592.094 546.594L593.422 543.117L578.617 500.734H590.766L598.617 527.023ZM617.016 537.453C617.016 535.656 617.615 534.198 618.812 533.078C620.036 531.958 621.56 531.398 623.383 531.398C625.232 531.398 626.755 531.958 627.953 533.078C629.177 534.198 629.789 535.656 629.789 537.453C629.789 539.224 629.19 540.669 627.992 541.789C626.794 542.883 625.258 543.43 623.383 543.43C621.534 543.43 620.01 542.883 618.812 541.789C617.615 540.669 617.016 539.224 617.016 537.453Z" fill="black"/>
</svg>
